<?xml version="1.0" encoding="UTF-8"?>
<svg version="1.1" xmlns="http://www.w3.org/2000/svg" width="87" height="41">
<path d="M0 0 C2.92036528 -0.00979167 5.8400503 -0.04094452 8.76025391 -0.07226562 C10.63915605 -0.07879001 12.51806313 -0.08404269 14.39697266 -0.08789062 C15.68942902 -0.10641083 15.68942902 -0.10641083 17.00799561 -0.12530518 C23.50765375 -0.10156228 29.03363835 0.93984966 34.40478516 4.88867188 C34.94361328 5.4584375 35.48244141 6.02820313 36.03759766 6.61523438 C36.59189453 7.17984375 37.14619141 7.74445312 37.71728516 8.32617188 C41.9894861 13.9839515 42.02800854 20.43174674 41.16259766 27.24023438 C38.82217001 33.22670014 34.68382414 37.60685873 28.83837891 40.31835938 C22.92954094 42.35410501 16.4149105 42.18453919 10.72509766 39.55273438 C7.4043098 37.61333983 5.15489183 35.58728858 3.16259766 32.24023438 C2.41259766 28.92773438 2.41259766 28.92773438 2.16259766 26.24023438 C-0.47740234 26.24023438 -3.11740234 26.24023438 -5.83740234 26.24023438 C-5.93537109 26.97886719 -6.03333984 27.7175 -6.13427734 28.47851562 C-6.92572655 31.58715222 -7.96980959 33.04774425 -10.08740234 35.42773438 C-10.67005859 36.10191406 -11.25271484 36.77609375 -11.85302734 37.47070312 C-16.39473659 41.52069188 -21.21357082 41.67846628 -27.05224609 41.55273438 C-32.7648923 40.91176425 -36.95103872 38.54830782 -40.71240234 34.24023438 C-45.01512227 28.16580625 -45.53628274 23.63761455 -44.83740234 16.24023438 C-42.5681526 10.11326007 -38.84610602 5.07467708 -32.95556641 2.01171875 C-23.14890368 -1.56009478 -10.33835384 0.02097384 0 0 Z " fill="#FF44A5" transform="translate(44.83740234375,-0.240234375)"/>
<path d="M0 0 C1.98 0 3.96 0 6 0 C6 1.98 6 3.96 6 6 C7.98 6 9.96 6 12 6 C12 7.98 12 9.96 12 12 C10.02 12 8.04 12 6 12 C6 13.98 6 15.96 6 18 C4.02 18 2.04 18 0 18 C0 16.02 0 14.04 0 12 C-1.98 12 -3.96 12 -6 12 C-6 10.02 -6 8.04 -6 6 C-4.02 6 -2.04 6 0 6 C0 4.02 0 2.04 0 0 Z " fill="#FFFFFF" transform="translate(17,12)"/>
<path d="M0 0 C2.125 0.375 2.125 0.375 4 1 C4.5625 2.9375 4.5625 2.9375 5 5 C4 6 4 6 1.4375 6.0625 C0.2309375 6.0315625 0.2309375 6.0315625 -1 6 C-1.625 4.125 -1.625 4.125 -2 2 C-1.34 1.34 -0.68 0.68 0 0 Z " fill="#FFE8F4" transform="translate(71,18)"/>
<path d="M0 0 C2.0625 0.4375 2.0625 0.4375 4 1 C4 2.65 4 4.3 4 6 C2.125 6.625 2.125 6.625 0 7 C-0.66 6.34 -1.32 5.68 -2 5 C-1.46428571 1.46428571 -1.46428571 1.46428571 0 0 Z " fill="#FFEBF5" transform="translate(65,24)"/>
<path d="M0 0 C1.65 0.33 3.3 0.66 5 1 C4.67 2.65 4.34 4.3 4 6 C2.35 5.67 0.7 5.34 -1 5 C-0.67 3.35 -0.34 1.7 0 0 Z " fill="#FFF1F8" transform="translate(58,18)"/>
<path d="M0 0 C1.67542976 0.28604898 3.34385343 0.61781233 5 1 C4.67 2.65 4.34 4.3 4 6 C2.68 6 1.36 6 0 6 C-0.38218767 4.34385343 -0.71395102 2.67542976 -1 1 C-0.67 0.67 -0.34 0.34 0 0 Z " fill="#FFF4F9" transform="translate(64,12)"/>
</svg>
